<svg width="383" height="245" viewBox="0 0 383 245" fill="none" xmlns="http://www.w3.org/2000/svg">
<rect x="5" y="180" width="95" height="64" fill="#D3C190"/>
<path fill-rule="evenodd" clip-rule="evenodd" d="M349.481 221.031H177.425L206.933 109.136H379L349.481 221.031Z" stroke="#172821" stroke-width="5"/>
<path d="M239.5 44.5272L239.132 36.7316L237.118 36.5703C235.598 36.4618 234.141 35.9162 232.924 34.9992C231.707 34.0822 230.781 32.8329 230.257 31.4017C229.995 30.6728 229.704 29.9543 229.385 29.2478C228.768 27.8728 228.556 26.3504 228.773 24.859C228.99 23.3676 229.629 21.9691 230.613 20.8277L232.013 19.1904L226.499 13.6779L224.97 14.9919C223.81 15.988 222.387 16.6284 220.872 16.8363C219.358 17.0443 217.815 16.8109 216.429 16.1643C215.726 15.8296 215.008 15.5276 214.276 15.2593C212.872 14.7231 211.65 13.7966 210.755 12.589C209.86 11.3814 209.329 9.94305 209.225 8.44353L209.053 6.2912H201.257L201.095 8.30449C200.989 9.82527 200.444 11.2827 199.527 12.5001C198.609 13.7176 197.358 14.6428 195.925 15.1638C195.183 15.4329 194.461 15.7233 193.772 16.0466C192.396 16.6639 190.874 16.8763 189.382 16.6589C187.89 16.4414 186.492 15.8032 185.35 14.8191L183.712 13.4089L178.2 18.9329L179.545 20.4615C180.542 21.6187 181.183 23.0392 181.391 24.5522C181.6 26.0651 181.366 27.606 180.719 28.9894C180.386 29.6939 180.084 30.4126 179.814 31.1434C179.28 32.55 178.355 33.7742 177.147 34.671C175.938 35.5677 174.499 36.0995 172.998 36.2034L170.844 36.3761V44.1512L172.858 44.3009C174.379 44.4103 175.836 44.9575 177.054 45.8765C178.271 46.7955 179.196 48.0471 179.718 49.4802C179.987 50.2124 180.277 50.9447 180.601 51.6342C181.218 53.0091 181.431 54.5316 181.213 56.023C180.996 57.5144 180.357 58.9128 179.373 60.0543L177.962 61.6915L183.476 67.204L185.017 65.8909C186.174 64.8944 187.595 64.2535 189.108 64.0452C190.621 63.8369 192.162 64.0701 193.545 64.7168C194.256 65.0402 194.967 65.3421 195.699 65.6219C197.104 66.1545 198.328 67.0783 199.225 68.284C200.122 69.4898 200.655 70.9271 200.761 72.4261L200.934 74.58H208.731L208.881 72.5668C208.987 71.0492 209.526 69.5939 210.434 68.374C211.343 67.1541 212.583 66.2211 214.007 65.686C214.739 65.4277 215.472 65.1364 216.161 64.8139C217.536 64.1966 219.059 63.9843 220.551 64.2017C222.042 64.4191 223.441 65.0573 224.583 66.0415L226.22 67.441L231.734 61.9285L230.42 60.399C229.425 59.2394 228.783 57.8178 228.573 56.3038C228.363 54.7898 228.593 53.2474 229.236 51.8604C229.57 51.1603 229.871 50.4387 230.151 49.7064C230.686 48.3038 231.612 47.0834 232.817 46.1888C234.023 45.2941 235.46 44.7625 236.957 44.6564L239.133 44.5272H239.5ZM207.624 53.8219C204.87 54.2944 202.037 53.8783 199.535 52.6336C197.033 51.389 194.992 49.3805 193.708 46.8989C192.423 44.4172 191.961 41.5912 192.39 38.8298C192.818 36.0683 194.114 33.5149 196.09 31.5389C198.066 29.563 200.619 28.267 203.381 27.8388C206.142 27.4105 208.968 27.872 211.45 29.1566C213.931 30.4412 215.94 32.4822 217.185 34.9841C218.429 37.4861 218.845 40.3192 218.373 43.0734C217.911 45.7558 216.63 48.2294 214.705 50.1541C212.78 52.0788 210.307 53.3601 207.624 53.8219Z" fill="#3F7160" stroke="#D3C190" stroke-width="5"/>
<path d="M325.521 69.1869V61.3937L323.532 61.2324C320.467 61.0078 317.816 58.9863 316.758 56.0655C316.499 55.3351 316.208 54.6167 315.885 53.9124C315.274 52.5387 315.064 51.0199 315.281 49.5319C315.498 48.044 316.131 46.6479 317.109 45.5054L318.491 43.8698L313.046 38.3582L311.526 39.6606C310.391 40.6599 308.989 41.3047 307.492 41.5152C305.995 41.7258 304.469 41.4929 303.103 40.8453C302.409 40.5107 301.699 40.2087 300.976 39.9403C298.144 38.8444 296.195 36.1885 295.978 33.1271L295.818 30.9739H288.119L287.959 32.9872C287.733 36.0915 285.732 38.7736 282.844 39.8441C282.124 40.1093 281.414 40.4036 280.717 40.726C279.361 41.3443 277.855 41.5565 276.381 41.3369C274.907 41.1173 273.529 40.4753 272.412 39.4886L270.784 38.0891L265.339 43.6008L266.637 45.1393C267.622 46.3024 268.255 47.722 268.462 49.2318C268.669 50.7417 268.442 52.2793 267.807 53.6647C267.478 54.3641 267.179 55.0856 266.913 55.8179C265.828 58.6827 263.205 60.6549 260.182 60.8778L258.055 61.0375V68.8314L260.043 68.9927C263.111 69.2214 265.761 71.247 266.818 74.1703C267.073 74.9026 267.371 75.6233 267.69 76.3235C268.296 77.6982 268.503 79.2159 268.287 80.7028C268.07 82.1896 267.439 83.5854 266.467 84.7304L265.084 86.3767L270.529 91.8884L272.05 90.5753C273.187 89.5808 274.589 88.9391 276.085 88.7287C277.58 88.5183 279.105 88.7483 280.472 89.3905C281.163 89.7245 281.876 90.0265 282.599 90.2955C285.429 91.3923 287.374 94.0498 287.587 97.1088L287.757 99.2619H295.456L295.616 97.2486C295.838 94.1468 297.836 91.463 300.721 90.3918C301.445 90.1349 302.155 89.8405 302.848 89.5098C304.205 88.8966 305.71 88.6872 307.183 88.9066C308.656 89.1261 310.034 89.7651 311.154 90.7472L312.77 92.1467L318.215 86.6351L316.917 85.0965C315.932 83.9336 315.299 82.5134 315.094 81.003C314.888 79.4926 315.119 77.9549 315.758 76.5711C316.088 75.8718 316.386 75.1502 316.651 74.418C317.731 71.5506 320.359 69.5801 323.383 69.3695L325.521 69.1869ZM294.355 77.6859C291.687 78.1436 288.942 77.7403 286.518 76.5345C284.094 75.3286 282.117 73.3828 280.873 70.9785C279.629 68.5743 279.182 65.8365 279.597 63.1614C280.012 60.4862 281.268 58.0126 283.182 56.0985C285.096 54.1844 287.57 52.9292 290.245 52.5145C292.921 52.0999 295.658 52.5473 298.062 53.792C300.466 55.0367 302.412 57.0141 303.617 59.4381C304.823 61.862 305.226 64.6067 304.768 67.2748C304.319 69.8726 303.077 72.2679 301.213 74.1321C299.349 75.9962 296.953 77.2379 294.356 77.6868L294.355 77.6859Z" fill="#3D6D5C" stroke="#172821" stroke-width="5"/>
<path d="M338.796 221.031H166.729L196.247 109.136H368.304L338.796 221.031Z" fill="white" stroke="#172821" stroke-width="5"/>
<path d="M202.107 123.945H349.381L327.751 206.221" fill="white"/>
<path d="M202.107 123.945H349.381L327.751 206.221" stroke="#D3C190" stroke-width="5"/>
<path fill-rule="evenodd" clip-rule="evenodd" d="M228.436 223.499H306.597V234.195H228.436V223.499Z" stroke="#172821" stroke-width="5"/>
<path d="M179.07 218.563H200.458C205.373 218.565 210.121 220.353 213.818 223.592L216.373 225.822C220.899 229.774 223.502 235.537 223.499 241.6H193.576" fill="#F6F7FA"/>
<path d="M179.07 218.563H200.458C205.373 218.565 210.121 220.353 213.818 223.592L216.373 225.822C220.899 229.774 223.502 235.537 223.499 241.6H193.576" stroke="#172821" stroke-width="5"/>
<path fill-rule="evenodd" clip-rule="evenodd" d="M40.8467 59.5952L43.672 83.4593L47.3662 90.0479L40.8467 119.256L88.1091 132.996L92.0831 117.85L112.589 120.868C114.397 121.136 116.24 120.719 117.756 119.7C118.627 119.116 119.364 118.354 119.919 117.464C120.474 116.575 120.835 115.578 120.978 114.54L123.932 93.2287L125.694 93.3471C126.496 93.3897 127.298 93.2509 128.04 92.9409C128.782 92.631 129.445 92.1579 129.978 91.5568C130.515 90.953 130.91 90.2373 131.135 89.4616C131.36 88.686 131.409 87.8699 131.279 87.0728L126.274 58.6424C126.274 58.6424 88.6036 45.7589 40.8467 59.5952Z" stroke="#172821" stroke-width="5"/>
<path d="M133.126 51.3783C134.691 26.3171 115.555 4.69341 90.3824 3.09397C65.2102 1.49453 43.5223 20.5035 41.9467 45.5647L35.9102 48.2337V59.6676L142.046 68.8207V59.6676L133.126 51.3783Z" fill="#D3C190" stroke="#172821" stroke-width="5"/>
<path d="M119.009 30.9739C113.237 19.4232 101.506 12.1106 88.6526 12.0505C75.8003 11.9913 64.0028 19.1953 58.125 30.6917" fill="#D3C190"/>
<path d="M119.009 30.9739C113.237 19.4232 101.506 12.1106 88.6526 12.0505C75.8003 11.9913 64.0028 19.1953 58.125 30.6917" stroke="#172821" stroke-width="5"/>
<path d="M30.9736 141.223V112.427L98.4397 126.83V141.223H30.9736Z" fill="#D3C190" stroke="#172821" stroke-width="5"/>
<path d="M3 244.068V173.807C3 152.632 20.0064 135.464 40.9859 135.464H102.366C108.302 135.423 114.071 137.429 118.7 141.144C125.728 146.889 134.286 157.427 134.286 174.79V209.191H193.88V241.141H117.192C106.839 241.141 98.4456 232.674 98.4398 222.225V179.681" fill="#D3C190"/>
<path d="M3 244.068V173.807C3 152.632 20.0064 135.464 40.9859 135.464H102.366C108.302 135.423 114.071 137.429 118.7 141.144C125.728 146.889 134.286 157.427 134.286 174.79V209.191H193.88V241.141H117.192C106.839 241.141 98.4456 232.674 98.4398 222.225V179.681" stroke="#172821" stroke-width="5"/>
<path d="M3 179.893H88.5667V197.171H3V179.893Z" fill="white" stroke="#172821" stroke-width="5"/>
<path d="M3 213.626H88.5667V232.549H3V213.626Z" fill="white" stroke="#172821" stroke-width="5"/>
<path d="M241.754 181.914L242.423 177.29L241.225 177.025C239.366 176.626 237.918 175.198 237.522 173.375C237.433 172.915 237.321 172.459 237.186 172.009C236.933 171.141 236.937 170.219 237.197 169.353C237.458 168.487 237.965 167.716 238.655 167.132L239.648 166.276L236.798 162.54L235.719 163.185C234.932 163.683 234.021 163.947 233.09 163.947C232.159 163.947 231.248 163.683 230.461 163.185C230.063 162.925 229.653 162.685 229.231 162.466C227.594 161.569 226.635 159.824 226.77 157.99L226.856 156.699L222.138 156.033L221.868 157.218C221.465 159.039 220.006 160.457 218.145 160.836C217.68 160.932 217.216 161.049 216.752 161.175C214.947 161.682 213.005 161.118 211.775 159.726L210.901 158.763L207.09 161.556L207.748 162.614C208.255 163.378 208.525 164.274 208.525 165.191C208.525 166.107 208.255 167.003 207.748 167.767C207.487 168.159 207.242 168.561 207.014 168.973C206.099 170.578 204.319 171.517 202.448 171.386L201.132 171.301L200.462 175.925L201.66 176.189C203.518 176.589 204.967 178.015 205.362 179.839C205.449 180.294 205.568 180.749 205.698 181.194C205.953 182.063 205.949 182.988 205.689 183.856C205.428 184.724 204.921 185.497 204.229 186.083L203.236 186.928L206.086 190.674L207.166 190.029C207.952 189.531 208.864 189.267 209.794 189.267C210.725 189.267 211.637 189.531 212.423 190.029C212.822 190.284 213.233 190.526 213.653 190.748C215.29 191.646 216.249 193.39 216.115 195.224L216.028 196.515L220.746 197.171L221.016 195.997C221.423 194.175 222.88 192.755 224.74 192.368C225.209 192.276 225.674 192.163 226.133 192.029C227.938 191.527 229.876 192.092 231.11 193.478L231.983 194.452L235.794 191.648L235.136 190.59C234.629 189.824 234.358 188.926 234.358 188.008C234.358 187.089 234.629 186.191 235.136 185.426C235.404 185.042 235.649 184.643 235.87 184.231C236.786 182.626 238.565 181.687 240.436 181.818L241.753 181.914H241.754ZM222.076 184.826C218.493 184.918 215.259 182.796 214.083 179.579C212.906 176.362 214.057 172.791 216.929 170.752C219.8 168.713 223.73 168.675 226.645 170.659C229.559 172.642 230.785 176.19 229.678 179.429C228.582 182.56 225.536 184.702 222.064 184.783L222.076 184.827V184.826Z" fill="white" stroke="#D3C190" stroke-width="5"/>
<path d="M299.192 186.475H249.004V145.254L273.563 132.996L299.192 145.254V186.475Z" fill="white" stroke="#34594C" stroke-width="5"/>
<path d="M260.523 154.387H269.574V162.615H260.523V154.387ZM278.624 154.387H288.497V162.615H278.624V154.387ZM260.523 178.247V168.374H269.574L260.523 178.247ZM278.624 168.374H288.497V178.247" fill="white"/>
<path d="M278.624 168.374H288.497V178.247M260.523 154.387H269.574V162.615H260.523V154.387ZM278.624 154.387H288.497V162.615H278.624V154.387ZM260.523 178.247V168.374H269.574L260.523 178.247Z" stroke="#172821" stroke-width="5"/>
<path d="M273.688 207.455H330.458M273.688 199.228H330.458H273.688Z" stroke="#D3C190" stroke-width="5"/>
<path d="M249.004 146.16H299.192" stroke="#34594C" stroke-width="5"/>
</svg>
