<svg xmlns="http://www.w3.org/2000/svg" width="464" height="296" viewBox="0 0 464 296">
    <g fill="none" fill-rule="evenodd" stroke-width="5">
        <path stroke="#3F3F3F" d="M424.122 268H215l35.865-136H460z"/>
        <path fill="#FFF" fill-rule="nonzero" stroke="#D3C190" d="M290 53.473v-9.475l-2.448-.196a9.607 9.607 0 0 1-8.338-6.282 36.533 36.533 0 0 0-1.06-2.618 9.631 9.631 0 0 1 1.492-10.234l1.702-1.99-6.702-6.7-1.859 1.597A9.661 9.661 0 0 1 262.407 19a30.692 30.692 0 0 0-2.617-1.1 9.58 9.58 0 0 1-6.14-8.284L253.442 7h-9.476l-.197 2.447a9.58 9.58 0 0 1-6.283 8.337c-.903.327-1.78.68-2.618 1.073a9.635 9.635 0 0 1-10.236-1.492l-1.99-1.714-6.7 6.714 1.635 1.858a9.631 9.631 0 0 1 1.427 10.365 32.564 32.564 0 0 0-1.1 2.618 9.568 9.568 0 0 1-8.285 6.15l-2.618.21v9.45l2.448.182a9.607 9.607 0 0 1 8.338 6.295c.327.89.68 1.78 1.073 2.618a9.631 9.631 0 0 1-1.492 10.234l-1.715 1.99 6.702 6.7 1.872-1.596a9.635 9.635 0 0 1 10.366-1.427c.864.393 1.728.76 2.618 1.1a9.567 9.567 0 0 1 6.152 8.27l.21 2.618h9.477l.183-2.447a9.646 9.646 0 0 1 6.23-8.363c.89-.314 1.78-.668 2.618-1.06a9.635 9.635 0 0 1 10.236 1.492l1.99 1.701 6.702-6.7-1.597-1.859a9.683 9.683 0 0 1-1.44-10.378c.406-.851.772-1.728 1.112-2.618a9.581 9.581 0 0 1 8.273-6.138l2.644-.157zM251.705 64.77a16 16 0 1 1 13.064-13.064 16.013 16.013 0 0 1-13.064 13.064z"/>
        <path fill="#FFF" fill-rule="nonzero" stroke="#34594C" d="M395 83.445v-9.472l-2.417-.196c-3.726-.273-6.948-2.73-8.234-6.28a31.469 31.469 0 0 0-1.06-2.617 9.669 9.669 0 0 1 1.487-10.218l1.68-1.988-6.618-6.699-1.848 1.583a9.397 9.397 0 0 1-10.237 1.44 30.106 30.106 0 0 0-2.585-1.1c-3.442-1.332-5.811-4.56-6.075-8.281L358.899 37h-9.358l-.194 2.447c-.275 3.773-2.707 7.033-6.217 8.334a34.7 34.7 0 0 0-2.586 1.072 9.372 9.372 0 0 1-10.094-1.504l-1.978-1.701-6.618 6.699 1.577 1.87a9.749 9.749 0 0 1 1.422 10.362c-.4.85-.763 1.727-1.086 2.617-1.319 3.482-4.507 5.879-8.182 6.15L313 73.54v9.473l2.417.196c3.728.278 6.949 2.74 8.234 6.293.31.89.672 1.766 1.06 2.617a9.722 9.722 0 0 1-1.487 10.218l-1.68 2.001 6.618 6.699 1.848-1.596a9.448 9.448 0 0 1 10.237-1.44c.84.406 1.706.773 2.585 1.1 3.44 1.333 5.804 4.563 6.062 8.281l.207 2.617h9.358l.194-2.447c.27-3.77 2.698-7.032 6.205-8.334a26.86 26.86 0 0 0 2.585-1.072 9.423 9.423 0 0 1 10.095 1.504l1.964 1.701 6.618-6.699-1.577-1.87a9.722 9.722 0 0 1-1.409-10.362c.401-.85.763-1.727 1.086-2.617 1.312-3.485 4.506-5.88 8.182-6.136l2.598-.223zm-37.88 10.33a15.5 15.5 0 1 1 12.656-12.654 15.525 15.525 0 0 1-12.655 12.655z"/>
        <path fill="#FFF" fill-rule="nonzero" stroke="#274C3D" d="M411.135 268H202l35.878-136H447z"/>
        <path fill="#FFF" fill-rule="nonzero" stroke="#D3C190" d="M245 150h179l-26.29 100"/>
        <path stroke="#34594C" d="M277 271h95v13h-95z"/>
        <path fill="#F6F7FA" fill-rule="nonzero" stroke="#3F3F3F" d="M217 265h25.995a24.66 24.66 0 0 1 16.238 6.113l3.106 2.71c5.501 4.804 8.664 11.808 8.661 19.177h-36.37"/>
        <path stroke="#3F3F3F" d="M49 71.787l3.434 29.005 4.49 8.008L49 144.3 106.444 161l4.83-18.408 24.924 3.668a8.919 8.919 0 0 0 6.28-1.42 9.04 9.04 0 0 0 3.916-6.272l3.59-25.902 2.141.144a6.505 6.505 0 0 0 5.208-2.176 6.606 6.606 0 0 0 1.581-5.45l-6.084-34.555S107.045 54.97 49 71.787z"/>
        <path fill="#FFF" fill-rule="nonzero" stroke="#34594C" d="M161.159 61.8c1.902-30.46-21.357-56.742-51.952-58.686-30.595-1.944-56.955 21.16-58.87 51.62L43 57.978v13.897L172 83V71.875L161.159 61.8z"/>
        <path fill="#FFF" fill-rule="nonzero" stroke="#386656" d="M144 37c-7.015-14.039-21.274-22.927-36.896-23-15.621-.072-29.96 8.684-37.104 22.657"/>
        <path fill="#F6F7FA" fill-rule="nonzero" stroke="#34594C" d="M37 171v-35l82 17.506V171z"/>
        <path fill="#F6F7FA" fill-rule="nonzero" stroke="#3F3F3F" d="M3 296v-85.397C3 184.866 23.67 164 49.169 164h74.603a31.374 31.374 0 0 1 19.853 6.904c8.542 6.982 18.943 19.79 18.943 40.894v41.812H235v38.833h-93.208c-12.583 0-22.785-10.292-22.792-22.992v-51.708"/>
        <path fill="#FFF" fill-rule="nonzero" stroke="#34594C" d="M3 218h104v21H3z"/>
        <path fill="#FFF" fill-rule="nonzero" stroke="#386656" d="M3 259h104v23H3z"/>
        <path fill="#FFF" fill-rule="nonzero" stroke="#EEE4CB" d="M293.187 220.456l.813-5.62-1.456-.322c-2.259-.485-4.019-2.22-4.5-4.436a17.043 17.043 0 0 0-.408-1.66 5.677 5.677 0 0 1 1.785-5.928l1.207-1.041-3.464-4.54-1.312.784a5.978 5.978 0 0 1-6.39 0 17.37 17.37 0 0 0-1.495-.874c-1.99-1.091-3.155-3.211-2.992-5.44l.105-1.569-5.734-.81-.328 1.44c-.49 2.214-2.264 3.937-4.526 4.398-.565.116-1.129.258-1.693.412-2.194.616-4.554-.07-6.049-1.762l-1.062-1.17-4.632 3.395.8 1.286a5.665 5.665 0 0 1 0 6.263 20.9 20.9 0 0 0-.892 1.466c-1.113 1.95-3.276 3.092-5.55 2.932l-1.6-.103-.814 5.62 1.456.321c2.259.486 4.019 2.22 4.5 4.437.106.553.25 1.106.408 1.646a5.69 5.69 0 0 1-1.785 5.942l-1.207 1.028 3.464 4.553 1.312-.785a5.978 5.978 0 0 1 6.39 0c.485.31.984.605 1.495.875 1.99 1.091 3.155 3.211 2.992 5.44l-.105 1.569 5.734.797.328-1.427c.495-2.214 2.265-3.94 4.526-4.411a19.062 19.062 0 0 0 1.693-.412c2.194-.61 4.55.077 6.049 1.762l1.062 1.183 4.632-3.408-.8-1.286a5.678 5.678 0 0 1 0-6.276c.325-.467.623-.952.892-1.453 1.113-1.95 3.276-3.092 5.55-2.932l1.6.116zm-23.917 3.54c-4.355.112-8.285-2.468-9.715-6.378-1.43-3.91-.031-8.25 3.459-10.728 3.49-2.478 8.267-2.524 11.809-.113 3.542 2.41 5.033 6.722 3.687 10.659-1.332 3.805-5.034 6.409-9.254 6.508l.014.053z"/>
        <path fill="#FFF" fill-rule="nonzero" stroke="#386656" d="M363 226h-61v-50.101L331.85 161 363 175.899z"/>
        <path fill="#FFF" fill-rule="nonzero" stroke="#3F3F3F" d="M316 187h11v10h-11zM338 187h12v10h-12zM316 216v-12h11M338 204h12v12"/>
        <path stroke="#D3C190" d="M332 241.5h69M332 251.5h69"/>
        <path stroke="#386656" d="M302 177h61"/>
    </g>
</svg>
