<svg xmlns="http://www.w3.org/2000/svg" width="102" height="137" viewBox="0 0 102 137">
    <path fill="#D3C190" fill-rule="nonzero" d="M37.943 136.997h61.278a2.722 2.722 0 0 0 1.961-.768 2.696 2.696 0 0 0 .818-1.934V67.791a2.705 2.705 0 0 0-2.198-2.637L80.411 61.23V13.185a2.769 2.769 0 0 0-2.198-2.701L25.533 0h-1.746L1.551 10.87A2.829 2.829 0 0 0 0 13.314v108.632c0 .728.295 1.425.818 1.934.523.508 1.23.785 1.961.768H35.1v9.776c.033.717.352 1.39.886 1.873a2.723 2.723 0 0 0 1.958.7zM22 120H5V15.454L22 7v113zm32 12H40V69.485L54 63v69zm41-21.69l-21-1.8v-2.82l21 2.16v2.46zm0-17.64l-21-2.58v-2.76l21 2.82v2.52zm1.676-22.863v14.117L73.59 80.476a2.717 2.717 0 0 0-2.204.585 2.866 2.866 0 0 0-.973 2.082v8.653a2.664 2.664 0 0 0 2.4 2.732L97 97.716v4.749l-23.474-2.603a2.847 2.847 0 0 0-2.14.716 2.736 2.736 0 0 0-.973 2.017v8.652a2.729 2.729 0 0 0 2.529 2.733L97 116.257V132H59V62l37.676 7.807zM75 49.7l-31-3.06V44.3l31 3.42v1.98zM75 30l-31-4.667V23l31 5.035V30zm-48 90V6l48 9.764v6.854l-33.246-5.755a2.78 2.78 0 0 0-2.23.647 2.637 2.637 0 0 0-.983 2.07v8.082c-.019 1.34.955 2.493 2.295 2.716L75 35.809v6.467l-33.377-4.01a2.648 2.648 0 0 0-2.164.647 2.763 2.763 0 0 0-.918 2.07v8.082c-.041 1.394 1.02 2.58 2.426 2.716L75 55.467v5.043l-18.689-3.815h-1.77L36.115 65.62a2.776 2.776 0 0 0-1.508 2.457v51.73L27 120z"/>
</svg>
