<svg width="53" height="53" viewBox="0 0 53 53" fill="none" xmlns="http://www.w3.org/2000/svg">
<path d="M10.2236 52V41.1489" stroke="#333333" stroke-width="1.5" stroke-miterlimit="10"/>
<path d="M4.25488 38.9787V27.5851" stroke="#333333" stroke-width="1.5" stroke-miterlimit="10"/>
<path d="M10.2231 19.9893C12.021 19.9893 13.4784 18.5319 13.4784 16.734C13.4784 14.9362 12.021 13.4787 10.2231 13.4787C8.42523 13.4787 6.96777 14.9362 6.96777 16.734C6.96777 18.5319 8.42523 19.9893 10.2231 19.9893Z" stroke="#333333" stroke-width="1.5" stroke-miterlimit="10"/>
<path d="M29.2128 22.7058L10.2234 22.1632L3.71277 22.7058C3.00518 22.7031 2.32473 22.9779 1.81754 23.4713C1.31035 23.9647 1.01685 24.6373 1 25.3447V38.9824H4.25532L5.88298 52.0036H14.0213L15.6489 25.4185H29.2128V22.7058Z" stroke="#333333" stroke-width="1.5" stroke-miterlimit="10"/>
<path d="M52 1H1V4.25532H52V1Z" stroke="#333333" stroke-width="1.5" stroke-miterlimit="10"/>
<path d="M1 21.0744V4.25891H52V36.2696H18.3617" stroke="#333333" stroke-width="1.5" stroke-miterlimit="10"/>
<path d="M18.3613 33.0106H50.372" stroke="#333333" stroke-width="1.5" stroke-miterlimit="10"/>
<path d="M26.5311 19.9191C26.5108 19.6481 26.5005 19.374 26.5 19.0967C26.5001 16.6789 27.3195 14.3325 28.8246 12.4404C30.3297 10.5482 32.4316 9.22197 34.7874 8.67799C37.1431 8.13401 39.6137 8.40443 41.796 9.44511C43.9784 10.4858 45.7435 12.2353 46.8037 14.4082C47.8639 16.5811 48.1565 19.0492 47.6336 21.4098C47.1107 23.7703 45.8034 25.884 43.9248 27.406C42.0461 28.9279 39.7073 29.7683 37.2896 29.7901C34.8719 29.8119 32.5181 29.0137 30.6124 27.5258" stroke="#333333" stroke-width="1.5" stroke-miterlimit="10"/>
<path d="M37.3506 18.905L46.2412 13.3391" stroke="#333333" stroke-width="1.5" stroke-miterlimit="10"/>
<path d="M28.1445 14.1616L37.3506 18.9043" stroke="#333333" stroke-width="1.5" stroke-miterlimit="10"/>
<path d="M37.3506 18.9042V29.7553" stroke="#333333" stroke-width="1.5" stroke-miterlimit="10"/>
<path d="M3.71289 7.51062H23.7874" stroke="#333333" stroke-width="1.5" stroke-miterlimit="10"/>
<path d="M3.71289 10.7659H23.7874" stroke="#333333" stroke-width="1.5" stroke-miterlimit="10"/>
<path d="M15.1064 14.0213H23.7873" stroke="#333333" stroke-width="1.5" stroke-miterlimit="10"/>
<path d="M15.1064 17.2766H23.7873" stroke="#333333" stroke-width="1.5" stroke-miterlimit="10"/>
</svg>
