<svg width="48" height="48" viewBox="0 0 48 48" fill="none" xmlns="http://www.w3.org/2000/svg">
<path d="M10.1995 40.2535C12.232 40.2535 13.8796 38.0567 13.8796 35.3468C13.8796 32.6369 12.232 30.4401 10.1995 30.4401C8.16713 30.4401 6.51953 32.6369 6.51953 35.3468C6.51953 38.0567 8.16713 40.2535 10.1995 40.2535Z" stroke="#333333" stroke-width="1.5" stroke-miterlimit="10"/>
<path d="M8.36035 42.0936V39.6403" stroke="#333333" stroke-width="1.5" stroke-miterlimit="10"/>
<path d="M12.04 39.6403V42.0936" stroke="#333333" stroke-width="1.5" stroke-miterlimit="10"/>
<path d="M10.1999 47.0001L12.04 42.4001C12.04 42.4001 19.2956 43.6444 19.4 44.2401V47.0001H1V44.2401C1.10505 43.6444 8.36004 42.4001 8.36004 42.4001L10.1999 47.0001" stroke="#333333" stroke-width="1.5" stroke-miterlimit="10"/>
<path d="M37.8001 40.2535C39.8325 40.2535 41.4801 38.0567 41.4801 35.3468C41.4801 32.6369 39.8325 30.4401 37.8001 30.4401C35.7677 30.4401 34.1201 32.6369 34.1201 35.3468C34.1201 38.0567 35.7677 40.2535 37.8001 40.2535Z" stroke="#333333" stroke-width="1.5" stroke-miterlimit="10"/>
<path d="M35.96 42.0936V39.6403" stroke="#333333" stroke-width="1.5" stroke-miterlimit="10"/>
<path d="M39.6396 39.6403V42.0936" stroke="#333333" stroke-width="1.5" stroke-miterlimit="10"/>
<path d="M37.7995 47.0001L39.6396 42.4001C39.6396 42.4001 46.8952 43.6444 46.9996 44.2401V47.0001H28.5996V44.2401C28.7047 43.6444 35.9595 42.4001 35.9595 42.4001L37.7995 47.0001" stroke="#333333" stroke-width="1.5" stroke-miterlimit="10"/>
<path d="M30.4404 17.5601H32.2804" stroke="#333333" stroke-width="1.5" stroke-miterlimit="10"/>
<path d="M34.1201 17.5601H35.9601" stroke="#333333" stroke-width="1.5" stroke-miterlimit="10"/>
<path d="M37.8008 17.5601H39.6408" stroke="#333333" stroke-width="1.5" stroke-miterlimit="10"/>
<path d="M18.4801 7.44002C20.3201 7.44002 20.6254 7.7826 21.2401 8.36004C21.5117 8.69984 21.8202 9.00843 22.16 9.28007C22.7224 9.59783 24.0001 9.28007 24.0001 9.28007V1H5.45315C4.51609 1 3.61733 1.37228 2.95472 2.03488C2.29212 2.69748 1.91992 3.59617 1.91992 4.53323V20.4735C1.92079 21.1651 2.19614 21.8281 2.68551 22.3169C3.17487 22.8056 3.83823 23.0801 4.52986 23.0801H15.4602L13.8832 28.6001L20.1922 23.0801H24.0032V14.8001C24.0032 14.8001 22.7258 14.483 22.1633 14.8001C21.8238 15.072 21.5152 15.3806 21.2432 15.7201C20.628 16.2995 20.3233 16.6401 18.4832 16.6401C16.4508 16.6401 14.8033 14.5808 14.8033 12.0401C14.8033 9.49929 16.4476 7.44002 18.4801 7.44002Z" stroke="#333333" stroke-width="1.5" stroke-linejoin="round"/>
<path d="M42.5484 1H24.0009V9.28007C24.0009 9.28007 22.7233 9.59783 22.1608 9.28007C21.821 9.00843 21.5125 8.69984 21.2409 8.36004C20.6262 7.7826 20.3209 7.44002 18.4809 7.44002C16.4484 7.44002 14.8008 9.49994 14.8008 12.0401C14.8008 14.5802 16.4484 16.6401 18.4809 16.6401C20.3209 16.6401 20.6256 16.2995 21.2409 15.7201C21.5128 15.3806 21.8213 15.072 22.1608 14.8001C22.7233 14.483 24.0009 14.8001 24.0009 14.8001V23.0801H26.8926L33.2008 28.6001L31.6238 23.0801H43.4743C43.8166 23.0802 44.1556 23.0129 44.4719 22.8819C44.7882 22.7509 45.0756 22.5589 45.3177 22.3169C45.5597 22.0748 45.7517 21.7874 45.8827 21.4711C46.0137 21.1548 46.0809 20.8158 46.0809 20.4735V4.53323C46.0809 4.06927 45.9898 3.60985 45.8123 3.18119C45.6348 2.75252 45.3746 2.36306 45.0465 2.03496C44.7185 1.70686 44.329 1.44654 43.9004 1.26897C43.4717 1.09141 43.0124 1 42.5484 1V1Z" stroke="#333333" stroke-width="1.5" stroke-linejoin="round"/>
</svg>
