<svg width="56" height="53" viewBox="0 0 56 53" fill="none" xmlns="http://www.w3.org/2000/svg">
<path d="M27.5 52C36.0604 52 43 44.8366 43 36C43 27.1634 36.0604 20 27.5 20C18.9396 20 12 27.1634 12 36C12 44.8366 18.9396 52 27.5 52Z" stroke="#333333" stroke-width="1.5" stroke-miterlimit="10"/>
<path d="M27 2L29.4724 6.93762L35 7.72972L31 11.5731L31.9443 17L27 14.438L22.0556 17L23 11.5731L19 7.72972L24.5274 6.93762L27 2Z" stroke="#333333" stroke-width="1.5" stroke-miterlimit="10"/>
<path d="M41.4966 10L43.1958 13.2921L47 13.8198L44.2501 16.3822L44.8991 20L41.4999 18.2918L38.1006 20L38.7499 16.3822L36 13.8198L39.8042 13.2921L41.4966 10Z" stroke="#333333" stroke-width="1.5" stroke-miterlimit="10"/>
<path d="M48.4966 20L50.1958 23.2921L54 23.8198L51.2501 26.3822L51.8991 30L48.4999 28.2918L45.1006 30L45.7499 26.3822L43 23.8198L46.8042 23.2921L48.4966 20Z" stroke="#333333" stroke-width="1.5" stroke-miterlimit="10"/>
<path d="M13.9969 10L15.5416 13.2921L19 13.8198L16.5 16.3822L17.0903 20L14.0001 18.2918L10.9099 20L11.5 16.3822L9 13.8198L12.4584 13.2921L13.9969 10Z" stroke="#333333" stroke-width="1.5" stroke-miterlimit="10"/>
<path d="M6.9969 20L8.54164 23.2921L12 23.8198L9.50005 26.3822L10.0903 30L7.00009 28.2918L3.90986 30L4.49995 26.3822L2 23.8198L5.45836 23.2921L6.9969 20Z" stroke="#333333" stroke-width="1.5" stroke-miterlimit="10"/>
<path d="M27.5564 36.2597C29.8884 36.2597 31.7788 33.7392 31.7788 30.6299C31.7788 27.5206 29.8884 25 27.5564 25C25.2244 25 23.334 27.5206 23.334 30.6299C23.334 33.7392 25.2244 36.2597 27.5564 36.2597Z" stroke="#333333" stroke-width="1.5" stroke-miterlimit="10"/>
<path d="M25.4453 38.371V35.5561" stroke="#333333" stroke-width="1.5" stroke-miterlimit="10"/>
<path d="M29.667 35.5561V38.371" stroke="#333333" stroke-width="1.5" stroke-miterlimit="10"/>
<path d="M27.5559 44L29.6672 38.7222C29.6672 38.7222 37.9915 40.1497 38.112 40.8332V44H17V40.8332C17.1198 40.1497 25.4448 38.7222 25.4448 38.7222L27.5559 44" stroke="#333333" stroke-width="1.5" stroke-miterlimit="10"/>
</svg>
