<svg xmlns="http://www.w3.org/2000/svg" width="127" height="148" viewBox="0 0 127 148">
    <g fill="#D3C190" fill-rule="nonzero">
        <path d="M37 63.694v12.612C37 77.794 38.17 79 39.612 79H87.32a2.57 2.57 0 0 0 1.892-.763c.505-.507.789-1.203.789-1.93V63.694c0-.727-.284-1.423-.79-1.93a2.57 2.57 0 0 0-1.89-.763H39.611c-.693 0-1.357.284-1.847.789A2.735 2.735 0 0 0 37 63.694zM43.068 67H85v7H43l.068-7zM87.32 86H39.611C38.17 86 37 87.069 37 88.386v11.23c0 1.317 1.17 2.384 2.612 2.384H87.32a2.753 2.753 0 0 0 1.892-.676c.505-.448.789-1.065.789-1.708v-11.23c0-.643-.284-1.26-.79-1.708A2.753 2.753 0 0 0 87.32 86zM85 97H43v-6h42v6z"/>
        <path d="M65.338.763A2.555 2.555 0 0 0 63.474 0c-.695.01-1.361.283-1.865.763L.842 62.013a2.498 2.498 0 0 0 0 3.742L12.028 76.98a2.413 2.413 0 0 0 1.865.762 2.62 2.62 0 0 0 1.864-.762l.484-.485v71.297c5.99.139 10.157.208 12.498.208h22.65a2.629 2.629 0 0 0 2.624-2.633v-26.814h19.404v26.606a2.629 2.629 0 0 0 2.624 2.633h35.701c-.322-6.143-.483-10.324-.483-12.541v-59.38l.483.485a2.687 2.687 0 0 0 3.73 0l10.91-10.947a2.64 2.64 0 0 0 0-3.395L65.338.763zM106 135.057c0 3.83-3.087 6.934-6.896 6.934H79.106v-26.487a2.628 2.628 0 0 0-2.62-2.635H51.868a2.628 2.628 0 0 0-2.62 2.635v26.487H29.25c-1.95.1-3.85-.634-5.23-2.022a6.955 6.955 0 0 1-2.01-5.259V70.435L64.141 28 106 70.435v64.622zm7.579-64.403L65.82 22.493a2.532 2.532 0 0 0-1.855-.763 2.737 2.737 0 0 0-1.856.763L14.421 71 7 63.516 63.966 6 121 63.516l-7.421 7.138z"/>
    </g>
</svg>
