<svg width="39" height="47" viewBox="0 0 39 47" fill="none" xmlns="http://www.w3.org/2000/svg">
<path d="M34.3769 15.2346C34.3769 16.745 32.4307 17.9295 31.9881 19.2923C31.5295 20.7046 32.3918 22.8038 31.5363 23.9796C30.6722 25.1672 28.4032 24.9913 27.2156 25.8554C26.0429 26.7109 25.5114 28.9275 24.0992 29.3861C22.7363 29.8286 21.013 28.3608 19.5008 28.3608C17.9885 28.3608 16.2652 29.8286 14.9024 29.3861C13.4901 28.9275 12.9611 26.7103 11.7853 25.8548C10.5983 24.9907 8.32873 25.1672 7.46459 23.9796C6.6091 22.8038 7.47141 20.7046 7.01341 19.2923C6.57085 17.9295 4.62402 16.745 4.62402 15.2346C4.62402 13.7242 6.57085 12.5398 7.01341 11.1769C7.47202 9.76404 6.6091 7.66535 7.46459 6.48951C8.32873 5.30195 10.5977 5.47851 11.7853 4.61376C12.9611 3.75827 13.4895 1.54178 14.9024 1.08317C16.2652 0.640609 17.9885 2.10841 19.5002 2.10841C21.0118 2.10841 22.7357 0.640609 24.0986 1.08317C25.5108 1.54178 26.0398 3.75825 27.2156 4.61436C28.4032 5.4785 30.6722 5.30195 31.5363 6.48951C32.3918 7.66535 31.5295 9.76466 31.9881 11.1769C32.4307 12.5398 34.3769 13.7242 34.3769 15.2346Z" stroke="#333333" stroke-width="1.5" stroke-miterlimit="10"/>
<path d="M29.003 16.7766C29.8545 11.529 26.2908 6.58472 21.0432 5.7332C15.7956 4.88168 10.8513 8.44538 9.99982 13.693C9.1483 18.9405 12.712 23.8848 17.9596 24.7363C23.2071 25.5878 28.1514 22.0241 29.003 16.7766Z" stroke="#333333" stroke-width="1.5" stroke-miterlimit="10"/>
<path d="M30.4139 24.7493C29.3788 25.1505 28.0407 25.2561 27.216 25.8567C26.0433 26.7122 25.5118 28.9287 24.0995 29.3873C23.036 29.7329 21.754 28.9219 20.5195 28.5454L27.2019 44.5164L30.0714 37.6564L36.9999 40.4958L30.4139 24.7493Z" stroke="#333333" stroke-width="1.5" stroke-miterlimit="10"/>
<path d="M14.9028 29.3861C13.4906 28.9275 12.9616 26.7103 11.7857 25.8548C10.9617 25.2548 9.62542 25.1493 8.58846 24.7481L2 40.4964L8.92857 37.6571L11.7987 44.517L18.4803 28.546C17.2495 28.9206 15.9663 29.7317 14.9028 29.3861Z" stroke="#333333" stroke-width="1.5" stroke-miterlimit="10"/>
<path d="M13.1104 14.2267L17.3749 19.5172L24.8379 10.2586" stroke="#333333" stroke-width="1.5" stroke-miterlimit="10"/>
</svg>
