<svg xmlns="http://www.w3.org/2000/svg" width="161" height="81" viewBox="0 0 161 81">
    <g fill="#D3C190" fill-rule="nonzero">
        <path d="M144.37.471a15.828 15.828 0 0 0-11.187 4.407l-22.675 22.791H49.136a3.014 3.014 0 0 0-1.965.76L.764 75.76a2.67 2.67 0 0 0-.53 2.963A2.646 2.646 0 0 0 2.73 80.47h95.157a16.597 16.597 0 0 0 12.925-6.306l45.878-45.583a16.382 16.382 0 0 0 4.308-11.32 16.53 16.53 0 0 0-4.775-11.936A16.358 16.358 0 0 0 144.37.47zm-38.944 69.094a11.028 11.028 0 0 1-8.446 3.905H8l41.248-41h54.594L86.122 50.19a16.265 16.265 0 0 0-5.43 12.09 2.853 2.853 0 0 0 1.66 2.553 2.799 2.799 0 0 0 3.016-.6l12.819-12.766c5.564.576 9.794 5.242 9.803 10.813.119 2.666-.8 5.275-2.564 7.284zm46.506-45.703L113.128 62.47c-.612-8.159-7.04-14.642-15.128-15.26l38.5-38.836a10.538 10.538 0 0 1 7.565-2.9c4.333.073 8.23 2.678 9.983 6.675a11.292 11.292 0 0 1-1.814 11.942l-.302-.229z"/>
        <path d="M87.768 39.239a2.831 2.831 0 0 0-2.601-1.77H55.019c-.728.002-1.421.308-1.913.847L28.849 62.7a2.78 2.78 0 0 0-.649 3.035 2.755 2.755 0 0 0 2.562 1.734h30.072a2.748 2.748 0 0 0 1.99-.846l24.332-24.231a2.857 2.857 0 0 0 .612-3.154zm-27.891 23.23H38l18.664-19H79l-19.123 19z"/>
    </g>
</svg>
