<svg xmlns="http://www.w3.org/2000/svg" width="139" height="97" viewBox="0 0 139 97">
    <path fill="#D3C190" fill-rule="nonzero" d="M2.918 96.942h23.9a2.329 2.329 0 0 0 1.714-.683 2.34 2.34 0 0 0 .682-1.719V78.96a2.467 2.467 0 0 0-1.425-2.208v-.454h9.003V90.45h4.923V76.168H56.87V90.45h4.858V76.168h15.156V90.45h5.246V76.168h15.156V90.45h4.858V76.168h9.521v.454a2.467 2.467 0 0 0-1.425 2.208v15.516a2.4 2.4 0 0 0 2.397 2.402h23.9a2.393 2.393 0 0 0 1.736-.68 2.406 2.406 0 0 0 .726-1.722V78.959a2.403 2.403 0 0 0-1.49-2.207v-60.7a2.403 2.403 0 0 0 1.49-2.273V7.287a2.533 2.533 0 0 0-1.555-2.272L125.527.145a2.908 2.908 0 0 0-1.814 0l-11.982 4.87a2.467 2.467 0 0 0-1.49 2.272v6.492a2.467 2.467 0 0 0 1.425 2.272v11.816h-9.521v-4.675l3.044 1.818-3.627-9.154c-.648-3.116-1.36-6.492-2.008-9.283-.712 3.116-1.425 6.492-2.072 9.283l-3.563 8.96 3.044-1.818v4.674H82.131v-4.674l3.044 1.817-3.497-8.959c-.713-3.116-1.36-6.492-2.073-9.283-.648 3.116-1.36 6.492-2.072 9.283l-3.498 8.96 3.044-1.818v4.674H61.923v-4.674l3.044 1.817-3.562-8.959c-.648-3.116-1.36-6.492-2.008-9.283-.712 3.116-1.36 6.492-2.073 9.283l-3.562 8.96 3.044-1.818v4.674H41.65v-4.674l3.044 1.817-3.562-8.959c-.713-3.116-1.36-6.492-2.073-9.283-.647 3.116-1.36 6.492-2.008 9.283l-3.562 8.96 3.044-1.818v4.674h-9.197v-11.62c.88-.41 1.438-1.3 1.425-2.273V7.287a2.467 2.467 0 0 0-1.49-2.272L15.354.145a3.102 3.102 0 0 0-1.879 0L1.558 5.016A2.532 2.532 0 0 0 .003 7.287v6.492a2.532 2.532 0 0 0 1.49 2.272v60.701a2.467 2.467 0 0 0-1.49 2.207v15.516c-.038.75.275 1.474.847 1.958a2.392 2.392 0 0 0 2.068.51zM115 8.69l9.532-3.6L134 8.69v2.22h-19V8.69zm17 7.375V76h-16V16l16 .065zM115 81h19v11h-19V81zm-13-49h10v39h-10V32zm-20 0h15v39H82.128L82 32zm-20 0h15v39H62V32zm-20 0h15v39H42V32zm-13.81 0H37v39h-9l.19-39zM5 8.69l9.468-3.6L24 8.69v2.22H5V8.69zM23 16v60H7V16.194L23 16zM5 81h19v11H5V81z"/>
</svg>
