<svg xmlns="http://www.w3.org/2000/svg" width="313" height="421" viewBox="0 0 313 421">
    <g fill="none" fill-rule="nonzero">
        <path fill="#D3C190" d="M159.804 164A49 49 0 1 0 111 115c.04 26.969 21.835 48.852 48.804 49zm-.396-82.855a34.3 34.3 0 1 1-34.153 34.3c.013-18.88 15.272-34.205 34.153-34.3z"/>
        <path fill="#172821" d="M307.768 110.97V77.327a7.438 7.438 0 0 0-7.44-7.438 7.438 7.438 0 0 0-7.438 7.438v33.296h-15.25V16.809C277.64 7.535 270.13.014 260.854 0h-48.55a7.438 7.438 0 0 0-7.44 7.438V39.37c-27.935-17.684-63.562-17.684-91.497 0V7.438A7.438 7.438 0 0 0 105.928 0h-48.6C48.05.014 40.53 7.531 40.517 16.81v261.929H23.854v-33.296a7.438 7.438 0 0 0-7.44-7.438 7.438 7.438 0 0 0-7.438 7.438v33.296H7.44a7.438 7.438 0 1 0 0 14.875h1.537v33.296a7.438 7.438 0 0 0 7.439 7.438 7.438 7.438 0 0 0 7.439-7.438v-33.246h16.663v38.552C40.53 341.489 48.053 349 57.328 349h203.526c9.265-.014 16.773-7.52 16.786-16.784V125.449h15.25v33.296a7.438 7.438 0 0 0 7.439 7.437 7.438 7.438 0 0 0 7.439-7.437v-33.57a7.438 7.438 0 0 0 0-14.205zM158.793 41.699c39.08.013 70.75 31.676 70.74 70.723-.009 39.047-31.694 70.694-70.773 70.69-39.08-.005-70.757-31.66-70.757-70.707.04-39.043 31.715-70.68 70.79-70.706zm46.145 142.32v38.887a1.896 1.896 0 0 1-1.887 1.904h-87.783a1.896 1.896 0 0 1-1.862-1.904v-38.838a85.123 85.123 0 0 0 91.632 0l-.1-.05zm57.256 147.712a1.882 1.882 0 0 1-1.856 1.859H57.2a1.859 1.859 0 0 1-1.858-1.86V16.438a1.857 1.857 0 0 1 1.858-1.933h40.984V50.86a85.81 85.81 0 0 0-25.166 60.72A85.81 85.81 0 0 0 98.184 172.3v50.384c.013 9.275 7.518 16.79 16.78 16.803h87.586c9.261-.013 16.766-7.528 16.78-16.803V172.3a85.736 85.736 0 0 0 25.195-60.72c0-22.79-9.067-44.64-25.196-60.719V14.504h41.009a1.882 1.882 0 0 1 1.856 1.883v315.344zM236.465 361H78.535A7.536 7.536 0 0 0 71 368.537a7.536 7.536 0 0 0 7.535 7.537h55.933l-31.997 32.007a7.57 7.57 0 0 0 0 10.702 7.564 7.564 0 0 0 10.699 0l42.697-42.71h1.809l42.697 42.71a7.564 7.564 0 0 0 10.7 0 7.57 7.57 0 0 0 0-10.702l-31.998-32.007h57.39a7.536 7.536 0 0 0 7.535-7.537 7.536 7.536 0 0 0-7.535-7.537z"/>
        <path fill="#386656" d="M233.5 266c-12.426 0-22.5 10.074-22.5 22.5s10.074 22.5 22.5 22.5 22.5-10.074 22.5-22.5a22.5 22.5 0 0 0-22.5-22.5zm-.453 29.063c-2.716.01-5.169-1.699-6.213-4.329-1.043-2.63-.472-5.66 1.448-7.674 1.92-2.015 4.81-2.615 7.316-1.52 2.506 1.096 4.136 3.67 4.125 6.518-.014 3.862-2.995 6.99-6.676 7.005z"/>
        <path fill="#D3C190" d="M193.537 254H76.463c-4.122 0-7.463 3.254-7.463 7.268v57.464c0 4.014 3.341 7.268 7.463 7.268h117.074c4.122 0 7.463-3.254 7.463-7.268v-57.44a7.172 7.172 0 0 0-2.177-5.155 7.566 7.566 0 0 0-5.286-2.137zm-7.103 57.778H84.476V269.11h101.958v42.667z"/>
    </g>
</svg>
