<svg width="196" height="278" viewBox="0 0 196 278" fill="none" xmlns="http://www.w3.org/2000/svg">
<path d="M128.704 155.944H130.204V154.444V123.05L193.39 276.5H176.042L126.419 155.944H128.704Z" fill="#34594C" stroke="#092146" stroke-width="3"/>
<path d="M78.7221 102.963V101.463H77.2221H61.7777C59.4448 101.463 57.2074 100.536 55.5578 98.8866C53.9082 97.237 52.9814 94.9996 52.9814 92.6667V30.8889C52.9814 28.556 53.9082 26.3186 55.5578 24.669C57.2074 23.0194 59.4448 22.0926 61.7777 22.0926H65.4259V61.7778C65.4259 66.2717 67.2111 70.5816 70.3888 73.7593C73.5665 76.937 77.8764 78.7222 82.3703 78.7222H113.259C117.753 78.7222 122.063 76.937 125.241 73.7593C128.418 70.5816 130.204 66.2717 130.204 61.7778V22.0926H133.849C136.181 22.1001 138.414 23.0295 140.063 24.678C141.711 26.3264 142.64 28.5599 142.648 30.891C142.648 30.8918 142.648 30.8926 142.648 30.8934V92.6622C142.648 92.663 142.648 92.6638 142.648 92.6646C142.64 94.9957 141.711 97.2292 140.063 98.8776C138.414 100.526 136.181 101.455 133.85 101.463C133.849 101.463 133.848 101.463 133.847 101.463L118.407 101.463H116.907V102.963V142.648H78.7221V102.963Z" fill="#D3C190" stroke="#092146" stroke-width="3"/>
<path d="M97.8148 19.0926L97.8103 19.0926C94.6858 19.1019 91.6919 20.3473 89.4826 22.5567C87.2732 24.766 86.0278 27.7599 86.0185 30.8844V30.8889C86.0185 33.222 86.7104 35.5027 88.0065 37.4426C89.3027 39.3825 91.145 40.8944 93.3005 41.7873C95.456 42.6801 97.8279 42.9137 100.116 42.4585C102.404 42.0034 104.506 40.8799 106.156 39.2302C107.806 37.5804 108.929 35.4785 109.384 33.1903C109.84 30.902 109.606 28.5302 108.713 26.3747C107.82 24.2192 106.308 22.3768 104.368 21.0806C102.429 19.7844 100.148 19.0926 97.8148 19.0926ZM115.839 64.3574C115.155 65.0416 114.227 65.426 113.259 65.426H82.3703C81.4028 65.426 80.4748 65.0416 79.7907 64.3574C79.1065 63.6733 78.7222 62.7454 78.7222 61.7778V5.14815C78.7222 4.1806 79.1065 3.25267 79.7907 2.56852C80.4748 1.88436 81.4028 1.5 82.3703 1.5H113.259C114.227 1.5 115.155 1.88436 115.839 2.56851C116.523 3.25267 116.907 4.1806 116.907 5.14815V61.7778C116.907 62.7454 116.523 63.6733 115.839 64.3574Z" fill="#D3C190" stroke="#092146" stroke-width="3"/>
<path d="M89.0181 276.5V155.944H106.611V276.5H89.0181Z" fill="#34594C" stroke="#092146" stroke-width="3"/>
<path d="M65.4258 154.444V155.944H66.9258H69.2064L19.5878 276.5H2.23985L65.4258 123.05V154.444Z" fill="#34594C" stroke="#092146" stroke-width="3"/>
</svg>
